<svg width="72" height="72" viewBox="0 0 72 72" fill="none" xmlns="http://www.w3.org/2000/svg">
<path d="M20.8062 8.99556L28.7282 1H51.8503L59.8283 8.99556H20.8062ZM19.9399 48.979L11.9619 41.0376V17.8639L19.9399 9.86727V48.979ZM63.022 20.6925L71 28.6329V51.8123L63.022 59.8043V20.6925ZM23.1296 19.8239L31.052 11.8273H54.1742L62.1517 19.8239H23.1296ZM51.1933 63.0039L43.2708 71H20.1492L12.1712 63.0039H51.1933ZM52.0601 23.0195L60.0386 30.9604V54.1346L52.0601 62.1312V23.0195ZM8.9785 51.3049L1.00001 43.3594V20.1852L8.9785 12.1886V51.3049ZM48.8694 52.174L40.9475 60.165H17.8253L9.84786 52.174H48.8694Z" fill="black" stroke="black"/>
</svg>
